<svg xmlns="http://www.w3.org/2000/svg" viewBox="0 0 200 200" width="200" height="200">
  <!-- 외곽 테두리 -->
  <circle cx="100" cy="100" r="95" fill="#FF9500" stroke="#8B4513" stroke-width="4"/>
  <circle cx="100" cy="100" r="88" fill="none" stroke="#FFD700" stroke-width="3"/>

  <!-- 룰렛 섹션들 (8개) -->
  <g id="wheel-sections">
    <!-- 빨강 -->
    <path d="M 100 100 L 100 12 A 88 88 0 0 1 162.23 37.77 Z" fill="#FF4444"/>
    <!-- 노랑 -->
    <path d="M 100 100 L 162.23 37.77 A 88 88 0 0 1 188 100 Z" fill="#FFD700"/>
    <!-- 초록 -->
    <path d="M 100 100 L 188 100 A 88 88 0 0 1 162.23 162.23 Z" fill="#4CD964"/>
    <!-- 파랑 -->
    <path d="M 100 100 L 162.23 162.23 A 88 88 0 0 1 100 188 Z" fill="#5AC8FA"/>
    <!-- 보라 -->
    <path d="M 100 100 L 100 188 A 88 88 0 0 1 37.77 162.23 Z" fill="#AF52DE"/>
    <!-- 주황 -->
    <path d="M 100 100 L 37.77 162.23 A 88 88 0 0 1 12 100 Z" fill="#FF9500"/>
    <!-- 연두 -->
    <path d="M 100 100 L 12 100 A 88 88 0 0 1 37.77 37.77 Z" fill="#B8E986"/>
    <!-- 하늘 -->
    <path d="M 100 100 L 37.77 37.77 A 88 88 0 0 1 100 12 Z" fill="#87CEEB"/>
  </g>

  <!-- 중앙 원 -->
  <circle cx="100" cy="100" r="35" fill="#FFD700" stroke="#8B4513" stroke-width="3"/>
  <circle cx="100" cy="100" r="25" fill="#FF9500"/>
  <circle cx="100" cy="100" r="15" fill="#FFD700"/>

  <!-- 반짝이는 효과 -->
  <g opacity="0.8">
    <circle cx="170" cy="30" r="8" fill="#FFD700"/>
    <circle cx="165" cy="25" r="4" fill="#FFF"/>
    <circle cx="180" cy="45" r="5" fill="#FFD700"/>
    <circle cx="178" cy="42" r="2" fill="#FFF"/>
    <circle cx="185" cy="60" r="6" fill="#FFD700"/>
    <circle cx="183" cy="58" r="3" fill="#FFF"/>
  </g>

  <!-- 물음표 -->
  <g transform="translate(145, 85)">
    <circle cx="0" cy="0" r="28" fill="#5AC8FA" stroke="#FFF" stroke-width="3"/>
    <text x="0" y="12" font-family="Arial, sans-serif" font-size="36" font-weight="bold" fill="#FFF" text-anchor="middle">?</text>
  </g>

  <!-- 상단 화살표/삼각형 -->
  <g transform="translate(100, -5)">
    <path d="M 0 0 L -10 20 L 10 20 Z" fill="#FFD700" stroke="#8B4513" stroke-width="2"/>
    <circle cx="0" cy="-5" r="6" fill="#FF4444" stroke="#8B4513" stroke-width="2"/>
  </g>
</svg>